<?xml version="1.0" standalone="no"?>
<!DOCTYPE svg PUBLIC "-//W3C//DTD SVG 20010904//EN" "http://www.w3.org/TR/2001/REC-SVG-20010904/DTD/svg10.dtd">
<svg version="1.0" xmlns="http://www.w3.org/2000/svg"
    width="707.000000pt" height="353.000000pt" viewBox="0 0 707.000000 353.000000"
    preserveAspectRatio="xMidYMid meet">

    <g transform="translate(0.000000,353.000000) scale(0.100000,-0.100000)"
        fill="#000000" stroke="none">
        <path
            d="M3337 2909 c-260 -45 -494 -164 -689 -348 -80 -75 -89 -105 -33 -115
50 -10 70 -1 146 64 212 183 427 271 724 300 310 29 638 -78 895 -291 46 -38
94 -72 106 -75 31 -8 78 9 82 29 2 9 -30 49 -75 94 -284 284 -732 417 -1156
342z" />
        <path
            d="M1953 2339 c-151 -25 -302 -131 -405 -282 -84 -123 -118 -260 -118
-469 0 -131 -3 -128 164 -128 l133 0 0 -42 c0 -53 33 -120 73 -150 17 -12 30
-25 30 -30 0 -4 -191 -8 -425 -8 -412 0 -426 -1 -445 -20 -25 -25 -25 -32 -1
-61 l19 -24 381 -3 c210 -1 381 -6 381 -10 0 -5 -18 -26 -40 -47 l-41 -40
-417 0 c-229 0 -423 -4 -429 -8 -16 -10 -17 -59 -1 -75 9 -9 109 -12 387 -12
l375 0 -59 -60 -59 -60 -413 0 -413 0 -12 -25 c-9 -21 -8 -28 7 -45 17 -19 31
-20 382 -20 335 0 387 -4 353 -25 -16 -10 -12 -42 6 -49 43 -16 80 -6 119 34
l39 40 591 -2 590 -3 5 -30 c4 -23 12 -31 36 -35 43 -9 70 4 82 39 l11 31 695
0 695 0 17 -33 c20 -39 31 -47 66 -47 36 0 60 25 52 56 l-6 24 608 0 609 0 22
-34 c28 -44 84 -64 120 -45 24 13 25 21 8 61 -7 17 16 18 360 20 358 3 368 4
381 23 12 18 11 24 -2 43 l-15 22 -404 0 -403 0 -49 50 c-26 28 -49 55 -51 60
-2 6 131 10 352 10 343 0 357 1 376 20 23 23 24 30 8 53 -12 14 -58 17 -425
23 l-412 7 -43 44 -42 43 356 0 c344 0 356 1 382 21 31 25 33 42 6 69 -19 19
-33 20 -460 20 -242 0 -440 3 -440 6 0 3 11 15 25 25 44 35 68 79 74 138 l6
56 110 5 110 5 3 147 c3 174 -11 258 -63 366 -79 167 -199 275 -385 346 l-55
21 -1510 1 c-830 1 -1533 -2 -1562 -7z m3153 -153 c107 -53 204 -150 258 -259
21 -43 39 -92 40 -110 l1 -32 -70 0 -70 0 -6 52 c-9 71 -41 133 -95 183 -69
63 -118 81 -211 78 l-78 -3 -3 -48 c-7 -104 51 -215 149 -288 83 -63 109 -71
259 -78 l135 -6 0 -50 0 -49 -1925 3 c-1059 1 -1927 5 -1929 7 -2 2 -5 23 -5
46 l-1 43 1695 5 1695 5 3 43 c3 35 0 44 -15 48 -10 3 -772 6 -1693 7 l-1675
2 3 25 c1 14 13 45 25 70 l22 45 72 0 c82 1 113 19 113 66 0 30 -40 69 -71 69
-11 0 -19 6 -19 13 0 14 70 71 133 107 86 51 15 49 1653 47 l1530 -2 80 -39z
m-3106 -745 c0 -25 -48 -71 -75 -71 -33 0 -75 37 -75 66 0 23 2 24 75 24 67 0
75 -2 75 -19z m250 -22 c0 -54 24 -102 71 -143 22 -18 39 -36 39 -39 0 -4 -80
-7 -177 -7 l-178 0 47 46 c49 47 68 90 68 152 l0 32 65 0 65 0 0 -41z m266 14
c-19 -80 -136 -82 -136 -2 l0 29 71 0 71 0 -6 -27z m264 -33 l0 -60 740 0 740
0 0 60 0 60 65 0 65 0 0 -40 c0 -57 21 -101 69 -142 22 -19 38 -38 34 -41 -8
-8 -1953 -9 -1953 -2 0 3 15 19 34 35 42 38 66 87 66 137 0 22 3 43 7 46 3 4
35 7 70 7 l63 0 0 -60z m1880 40 c0 -29 -44 -70 -75 -70 -31 0 -75 41 -75 70
0 18 6 20 75 20 69 0 75 -2 75 -20z m250 -17 c1 -53 31 -115 74 -149 20 -16
36 -32 36 -36 0 -5 -76 -8 -170 -8 -93 0 -170 3 -170 6 0 3 13 16 29 30 39 33
71 101 71 152 l0 42 65 0 65 0 0 -37z m270 15 c0 -29 -9 -42 -37 -57 -48 -25
-103 3 -103 54 0 24 2 25 70 25 66 0 70 -1 70 -22z m-2316 -340 c-4 -13 -10
-33 -15 -45 l-9 -23 -515 0 c-283 0 -515 3 -514 8 0 4 21 24 45 45 l45 37 485
0 485 0 -7 -22z m1229 -23 c12 -33 13 -45 4 -45 -93 -3 -1132 2 -1135 4 -2 2
6 22 18 45 l20 41 539 0 539 0 15 -45z m1156 3 c27 -29 36 -45 28 -50 -14 -9
-1039 2 -1049 11 -3 3 -10 23 -13 44 l-7 37 500 0 500 0 41 -42z m-2459 -163
c0 -23 -29 -88 -43 -97 -7 -4 -261 -8 -564 -8 -460 0 -553 2 -553 14 0 7 22
34 50 60 l49 46 531 0 c469 0 530 -2 530 -15z m1382 -38 c10 -27 16 -53 13
-58 -4 -5 -268 -9 -651 -9 -526 0 -646 2 -650 13 -3 8 4 35 15 60 l20 47 618
-2 617 -3 18 -48z m1256 0 c29 -29 49 -56 46 -60 -4 -4 -267 -7 -584 -7 l-576
0 -17 53 c-9 30 -17 57 -17 60 0 4 247 7 548 7 l548 0 52 -53z" />
        <path
            d="M3145 2090 c-34 -13 -48 -38 -49 -85 -1 -34 5 -50 21 -67 22 -22 29
-22 198 -22 152 1 178 4 195 19 26 23 35 70 20 106 -22 51 -52 59 -217 58 -81
0 -157 -4 -168 -9z" />
        <path
            d="M3734 2090 c-55 -22 -71 -99 -31 -146 23 -26 24 -26 186 -30 210 -4
231 5 231 94 -1 44 -16 67 -54 82 -33 12 -302 12 -332 0z" />
        <path
            d="M4334 2091 c-75 -33 -68 -170 9 -171 12 -1 92 -1 177 0 143 1 156 2
177 22 31 29 31 88 1 123 -23 25 -26 26 -183 30 -88 3 -170 1 -181 -4z" />
        <path
            d="M1950 2063 c-29 -37 -22 -99 14 -129 22 -20 36 -22 173 -22 81 0 160
4 174 9 49 19 67 111 29 149 -18 18 -33 20 -194 20 l-175 0 -21 -27z" />
        <path
            d="M2521 2064 c-28 -36 -27 -86 3 -121 l24 -28 162 -3 c106 -2 172 1
190 8 51 21 66 97 29 144 l-20 26 -184 0 -184 0 -20 -26z" />
    </g>
</svg>